<?xml version="1.0" encoding="UTF-8"?>
<svg id="Layer_2" data-name="Layer 2" xmlns="http://www.w3.org/2000/svg" viewBox="0 0 40.11 98.73">
  <defs>
    <style>
      .cls-1 {
        stroke-width: 0px;
      }
    </style>
  </defs>
  <g id="Layer_1-2" data-name="Layer 1">
    <g>
      <path class="cls-1" d="m7.82,8.34c1.09,3.13,2.32,6.22,3.48,9.33.22.58.38,1.19.56,1.74-.91.53-1.71.97-2.48,1.46-1.01.65-1.73,1.52-1.92,2.76-.2,1.24.57,2.03,1.81,1.82,1.18-.2,1.53-1.1,1.72-2.1.13-.69.31-1.38,1.15-1.42.88-.04.72.8.86,1.28,1.32,4.75,2.13,9.64,2.67,14.56,1.23-.97,2.73-1.52,4.46-1.64.17-.01.35-.02.52-.02.33,0,.66.02.97.06-1.14-5.11-2.7-10.1-4.58-15-.22-.57-.2-1.1.31-1.35.36-.17.92-.11,1.32.04.44.16.78.59,1.2.81.68.36,1.48.56,2.04-.03.41-.43.72-1.16.7-1.74-.04-.87-.74-1.47-1.62-1.43-1.48.07-2.95.26-4.41.47-.53.08-.83.06-1.05-.51-.5-1.31-1.15-2.56-1.61-3.88-1.28-3.61-2.77-7.18-1.69-11.18.28-1.05-.65-2.08-1.76-2.31-2.28-.48-4.18,1.37-3.76,3.74.27,1.53.6,3.06,1.11,4.52Z"/>
      <path class="cls-1" d="m37.95,55.5s.08.08.12.12c-.26.23-.53.47-.79.7-.28.25-.55.5-.84.74-2.98,2.54-6.32,4.39-9.94,5.84-1.93.77-4,1.18-6.03,1.54s-4.28.51-6.43.4c-3.24-.17-6.58-.86-9.28-2.76-1.61-1.14-2.86-2.7-3.66-4.51-.99-2.25-1.27-4.62-.98-7.04.51-4.2,2.07-7.96,4.85-11.18,2-2.32,4.46-4.02,7.33-5.11.24-.09.49-.14.77-.22.16,1.39-.35,2.56-.99,3.66-.59,1.02-1.27,1.99-1.86,3.01-1.16,2-1.46,4.05-.18,6.13.53.86,1.39,1.57,2.13,1.81-.03-2.59.79-4.95,1.89-7.23.29-.61.63-1.16,1.02-1.65.26-.33.53-.63.83-.89,1.16-1.06,2.62-1.67,4.42-1.78.16,0,.31-.01.47-.01.38,0,.76.03,1.14.1.34.06.67.14.99.25.32.11.63.25.93.41,1.75.95,2.48,2.84,1.85,4.85-.29.91-.74,1.74-1.49,2.47-.03.03-.06.05-.08.08-.03-.14-.05-.2-.05-.26-.06-1.03-.45-1.84-1.15-2.39-.28-.21-.6-.39-.97-.52-.14-.05-.28-.1-.42-.14-.1-.03-.2-.07-.3-.09-.12-.03-.24-.06-.36-.09-.12-.03-.24-.05-.36-.07-.19-.03-.37-.06-.56-.08-.11-.01-.23-.02-.34-.03-.18-.01-.36-.02-.54-.02-.97,0-1.92.18-2.88.56-.07.03-.14.06-.21.09-.24.11-.47.23-.67.38-.76.55-1.19,1.36-1.27,2.37-.11,1.34.45,2.45,1.63,3.02,0,0,0,0,.01,0,.3.15.61.28.93.4.82.32,1.67.56,2.53.71.22.04.45.07.67.1.06,0,.12.02.17.02.17.02.34.04.51.06.06,0,.12.01.18.02.19.02.37.03.56.04.04,0,.07,0,.11,0,.23.01.46.02.69.02.04,0,.07,0,.11,0,.12,0,.24,0,.36,0,.07,0,.14,0,.21,0,.11,0,.22,0,.33-.02.06,0,.12,0,.17-.01.17-.01.34-.03.51-.05.3-.03.6-.08.9-.13.7-.12,1.39-.29,2.08-.51,2.6-.84,4.83-2.26,6.71-4.25.13-.14.22-.31.4-.41.07,1.35-.27,2.55-.85,3.7-1.17,2.31-3.08,3.86-5.32,5.02-.9.46-1.82.86-2.75,1.19-.3.11-.6.2-.9.29-.28.08-.56.16-.84.23-.08.02-.16.04-.24.06-.2.05-.4.1-.6.14-.1.02-.19.04-.29.06-.19.04-.38.07-.57.11-.1.02-.2.03-.3.05-.19.03-.38.06-.57.08-.1.01-.19.03-.29.04-.21.02-.42.04-.64.06-.07,0-.15.02-.23.02-.29.02-.58.04-.86.05-.05,0-.1,0-.15,0-.21,0-.41.01-.62.01-.04,0-.08,0-.12,0-.05,0-.1,0-.15,0-.28,0-.56,0-.84-.02-.3-.02-.61-.04-.92-.07-.2-.02-.4-.04-.59-.06-1.97-.22-3.82-.84-5.44-2.06-1.58-1.19-2.31-2.79-2.43-4.71-.15-2.49.58-4.81,1.55-7.07.12-.28.25-.56.38-.84-.04-.04-.07-.08-.11-.11-.63.38-1.3.71-1.87,1.15-1.91,1.48-3.7,3.08-4.7,5.36-2.14,4.87-.22,9.88,4.63,12.04,2.54,1.13,5.2,1.64,7.91,1.64.12,0,.24,0,.36,0,.31,0,.62-.02.93-.03.37-.02.75-.05,1.12-.09,2.25-.24,4.4-.68,6.48-1.31.31-.09.61-.19.92-.29,5.17-1.71,9.84-4.53,14.21-8.03.33-.26.65-.54.97-.8-2.64,4.87-7.17,7.49-11.82,9.98,3.49-.79,6.68-2.24,9.65-4.21Z"/>
      <path class="cls-1" d="m15.48,64.57c1.58-.01,3.16-.16,4.71-.44,1.08-.19,2.17-.4,3.25-.67-.19,2.09-.39,4.49-.75,6.56-.04.25-.08.49-.11.74-.09.58-.16,1.16-.26,1.73-.19,1.03-.38,2.07-.63,3.09-.33,1.42-.69,2.84-1.09,4.24-.28,1-.63,1.98-.99,2.96-.4,1.06-.82,2.11-1.28,3.14-.37.84-.78,1.67-1.21,2.48-.37.69-.75,1.37-1.15,2.04-.14.23-.28.46-.43.69-.78,1.24-1.59,2.47-2.56,3.58-.23.26-.45.51-.68.77-.31.35-1.62,1.72-2.49,2.56-.41.39-.71.67-.77.67.04-.07.72-1.15.76-1.22.11-.21.23-.41.35-.62.36-.63.71-1.26,1.05-1.9.45-.86.87-1.74,1.28-2.63.41-.88.84-1.75,1.19-2.65.58-1.49,1.14-2.98,1.63-4.5.43-1.33.77-2.69,1.11-4.04.5-2.01,1.06-6.1,1.06-6.1,0,0,.12-1,.07-.8-4.1,14.39-8.08,17.14-8.22,17.28,7.53-15.53,6.16-26.97,6.16-26.97Z"/>
    </g>
  </g>
</svg>